<svg width="49" height="49" viewBox="0 0 49 49" fill="none" xmlns="http://www.w3.org/2000/svg">
<path fill-rule="evenodd" clip-rule="evenodd" d="M24.5 49C38.031 49 49 38.031 49 24.5C49 10.969 38.031 0 24.5 0C10.969 0 0 10.969 0 24.5C0 38.031 10.969 49 24.5 49ZM17.296 8.72H11.5V13.4H17.296V8.72ZM12.148 30.644H8.692V35H20.32V30.644H17.224V16.46H8.692V20.816H12.148V30.644ZM28.6518 16.46H23.6838V35H28.7598V24.236C29.2157 23.132 29.8757 22.22 30.7397 21.5C31.6038 20.78 32.5158 20.42 33.4757 20.42C34.2918 20.42 34.9398 20.696 35.4198 21.248C35.8997 21.776 36.1398 22.52 36.1398 23.48V35H41.2158V22.688C41.2158 20.576 40.6518 18.932 39.5238 17.756C38.3958 16.556 36.8358 15.956 34.8438 15.956C33.4998 15.956 32.3237 16.256 31.3158 16.856C30.3078 17.456 29.4198 18.392 28.6518 19.664V16.46Z" fill="white"/>
</svg>
